<?xml version="1.0" encoding="UTF-8"?> <svg xmlns="http://www.w3.org/2000/svg" width="467" height="189" viewBox="0 0 467 189" fill="none"> <path d="M94.5 189C146.691 189 189 146.691 189 94.5C189 42.3091 146.691 0 94.5 0C42.3091 0 0 42.3091 0 94.5C0 146.691 42.3091 189 94.5 189Z" fill="#92EDF7"></path> <path d="M75.1102 40.0703C75.1102 40.0703 60.2402 52.5703 60.2402 81.6903C60.2402 95.5703 63.6702 109.77 72.6502 120.6C79.0602 128.33 86.6502 135.22 93.6502 142.46C99.5102 148.58 105.41 154.65 111.28 160.77C112.5 162.04 113.73 163.31 114.95 164.59C114.95 164.59 129.82 152.09 129.82 122.96C129.82 108.81 126.2 93.7803 116.61 82.9603C104.55 69.3803 91.1802 56.7803 78.6102 43.6703L75.1102 40.0703Z" fill="#04D3D9"></path> <path d="M115.75 40.0703C115.75 40.0703 130.62 52.5703 130.62 81.6903C130.62 95.5703 127.19 109.77 118.2 120.6C111.8 128.33 104.2 135.22 97.1998 142.46C91.3398 148.58 85.4298 154.65 79.5698 160.77L75.8898 164.59C75.8898 164.59 61.0498 152.09 61.0498 123C61.0498 108.85 64.6698 93.8203 74.2598 83.0003C86.3198 69.4203 99.6898 56.8203 112.26 43.7103L115.75 40.0703Z" fill="#005485"></path> <path d="M111.38 28.15C111.382 31.2481 110.465 34.2772 108.745 36.854C107.025 39.4308 104.579 41.4395 101.717 42.626C98.8551 43.8125 95.7056 44.1235 92.6669 43.5196C89.6282 42.9157 86.837 41.424 84.6463 39.2333C82.4556 37.0426 80.9639 34.2513 80.36 31.2127C79.7561 28.174 80.067 25.0245 81.2535 22.1626C82.44 19.3007 84.4488 16.855 87.0256 15.135C89.6024 13.415 92.6315 12.498 95.7296 12.5C99.8794 12.5027 103.859 14.1523 106.793 17.0867C109.727 20.0211 111.377 24.0002 111.38 28.15Z" fill="#005485"></path> <g style="mix-blend-mode:soft-light" opacity="0.4"> <path style="mix-blend-mode:soft-light" opacity="0.4" d="M75.1102 40.0703C75.1102 40.0703 60.2402 52.5703 60.2402 81.6903C60.2402 95.5703 63.6702 109.77 72.6502 120.6C79.0602 128.33 86.6502 135.22 93.6502 142.46C99.5102 148.58 105.41 154.65 111.28 160.77C112.5 162.04 113.73 163.31 114.95 164.59C114.95 164.59 129.82 152.09 129.82 122.96C129.82 108.81 126.2 93.7803 116.61 82.9603C104.55 69.3803 91.1802 56.7803 78.6102 43.6703L75.1102 40.0703Z" fill="url(#paint0_radial)"></path> <path style="mix-blend-mode:soft-light" opacity="0.4" d="M115.75 40.0703C115.75 40.0703 130.62 52.5703 130.62 81.6903C130.62 95.5703 127.19 109.77 118.2 120.6C111.8 128.33 104.2 135.22 97.1998 142.46C91.3398 148.58 85.4298 154.65 79.5698 160.77L75.8898 164.59C75.8898 164.59 61.0498 152.09 61.0498 123C61.0498 108.85 64.6698 93.8203 74.2598 83.0003C86.3198 69.4203 99.6898 56.8203 112.26 43.7103L115.75 40.0703Z" fill="url(#paint1_radial)"></path> <path style="mix-blend-mode:soft-light" opacity="0.4" d="M111.381 28.15C111.383 31.2481 110.466 34.2772 108.746 36.854C107.026 39.4308 104.58 41.4395 101.718 42.626C98.8561 43.8125 95.7066 44.1235 92.6679 43.5196C89.6292 42.9157 86.838 41.424 84.6473 39.2333C82.4566 37.0426 80.9649 34.2513 80.361 31.2127C79.757 28.174 80.068 25.0245 81.2545 22.1626C82.441 19.3007 84.4498 16.855 87.0266 15.135C89.6034 13.415 92.6324 12.498 95.7306 12.5C99.8804 12.5027 103.859 14.1523 106.794 17.0867C109.728 20.0211 111.378 24.0002 111.381 28.15Z" fill="url(#paint2_radial)"></path> </g> <path d="M216.888 34.144C220.813 34.144 224.376 34.848 227.576 36.256L225.72 44.768L225.016 45.152C223.821 44.3413 222.456 43.7227 220.92 43.296C219.427 42.8267 217.955 42.592 216.504 42.592C213.432 42.592 211.149 43.552 209.656 45.472C208.205 47.392 207.48 50.4213 207.48 54.56C207.48 63.52 210.659 68 217.016 68C218.424 68 219.917 67.808 221.496 67.424C223.075 67.04 224.504 66.5067 225.784 65.824L226.68 66.336L225.848 74.848C222.861 76.0427 219.64 76.64 216.184 76.64C209.741 76.64 204.856 74.848 201.528 71.264C198.2 67.68 196.536 62.496 196.536 55.712C196.536 48.8427 198.307 43.5307 201.848 39.776C205.389 36.0213 210.403 34.144 216.888 34.144ZM262.368 65.504L262.688 76H253.088L253.536 66.464L253.472 63.776L247.072 63.712L241.44 63.84L241.376 65.504L241.76 76H232.16L232.608 66.464L232.16 43.488H241.952L241.632 55.904L247.648 56.032L253.344 55.904L253.088 43.488H262.88L262.368 65.504ZM294.65 68.256L295.226 68.896L294.586 76H271.098L271.546 66.464L271.098 43.488H294.906L295.482 44.192L294.842 51.232L286.394 50.912H280.698L280.57 55.904H286.074L291.642 55.712L292.154 56.416L291.578 63.52L285.434 63.328L280.378 63.392L280.314 65.504L280.442 68.576H285.818L294.65 68.256ZM315.136 42.976C318.336 42.976 321.28 43.4453 323.968 44.384L322.304 52.256L321.6 52.64C320.661 52.0853 319.552 51.6373 318.272 51.296C317.035 50.9547 315.819 50.784 314.624 50.784C312.32 50.784 310.613 51.424 309.504 52.704C308.395 53.984 307.84 56.0747 307.84 58.976C307.84 62.2613 308.437 64.6933 309.632 66.272C310.869 67.808 312.725 68.576 315.2 68.576C316.352 68.576 317.568 68.448 318.848 68.192C320.171 67.936 321.323 67.5947 322.304 67.168L323.136 67.68L322.304 75.488C319.872 76.2133 317.269 76.576 314.496 76.576C308.992 76.576 304.811 75.168 301.952 72.352C299.136 69.4933 297.728 65.3973 297.728 60.064C297.728 54.6027 299.243 50.4 302.272 47.456C305.301 44.4693 309.589 42.976 315.136 42.976ZM347.403 58.848C350.731 63.584 354.678 68.6187 359.243 73.952L359.115 75.04C356.086 75.7653 352.886 76.2987 349.515 76.64L348.363 76.064C344.566 70.432 341.238 65.248 338.379 60.512L338.251 65.504L338.635 76H329.035L329.483 66.464L329.035 43.488H338.827L338.443 57.632L345.995 46.944L347.915 43.488L358.283 43.424L347.403 58.848ZM376.725 55.776V62.048L361.557 64.416L360.789 63.648V57.376L375.957 55.072L376.725 55.776ZM413.876 55.648L413.812 61.6C413.855 66.4213 412.361 70.1333 409.332 72.736C406.345 75.3387 402.079 76.64 396.532 76.64C391.156 76.64 387.039 75.36 384.18 72.8C381.364 70.24 380.02 66.5707 380.148 61.792L380.276 55.52L380.02 34.72H390.388L389.94 60.384C389.897 63.1147 390.452 65.12 391.604 66.4C392.756 67.68 394.548 68.32 396.98 68.32C399.455 68.32 401.268 67.7013 402.42 66.464C403.615 65.184 404.191 63.2427 404.148 60.64L403.7 34.72H414.26L413.876 55.648ZM437.272 43.424C441.026 43.424 443.928 44.32 445.976 46.112C448.024 47.904 449.048 50.4427 449.048 53.728C449.048 56.288 448.408 58.5493 447.128 60.512C445.89 62.432 444.141 63.9253 441.88 64.992C439.618 66.0587 436.994 66.592 434.008 66.592H431.128L431.448 76H421.848L422.296 66.464L421.848 43.488L437.272 43.424ZM435.48 59.808C436.674 59.3387 437.549 58.6987 438.104 57.888C438.658 57.0773 438.936 56.0107 438.936 54.688C438.936 53.1947 438.53 52.1067 437.72 51.424C436.952 50.6987 435.693 50.2933 433.944 50.208L431.448 50.4L431.192 59.616L435.48 59.808Z" fill="#005485"></path> <path d="M238.52 143.552V160.384L230.968 160.96L229.56 152H199.736L200.248 139.776L199.736 110.72H210.296L209.72 138.752L209.912 143.552H223.032L223.16 139.776L222.648 110.72H233.144L232.632 138.752L232.76 143.552H238.52ZM267.65 144.256L268.226 144.896L267.586 152H244.098L244.546 142.464L244.098 119.488H267.906L268.482 120.192L267.842 127.232L259.394 126.912H253.698L253.57 131.904H259.074L264.642 131.712L265.154 132.416L264.578 139.52L258.434 139.328L253.378 139.392L253.314 141.504L253.442 144.576H258.818L267.65 144.256ZM305.368 141.504L305.688 152H296.088L296.536 142.464L296.472 139.776L290.072 139.712L284.44 139.84L284.376 141.504L284.76 152H275.16L275.608 142.464L275.16 119.488H284.952L284.632 131.904L290.648 132.032L296.344 131.904L296.088 119.488H305.88L305.368 141.504ZM336.44 120.192L335.864 127.36L329.08 126.976H327.928L327.672 141.504L328.056 152H318.456L318.904 142.464L318.648 126.976H317.496L310.584 127.36L309.944 126.656L310.52 119.488H335.928L336.44 120.192ZM355.959 119.424C359.714 119.424 362.615 120.32 364.663 122.112C366.711 123.904 367.735 126.443 367.735 129.728C367.735 132.288 367.095 134.549 365.815 136.512C364.578 138.432 362.828 139.925 360.567 140.992C358.306 142.059 355.682 142.592 352.695 142.592H349.815L350.135 152H340.535L340.983 142.464L340.535 119.488L355.959 119.424ZM354.167 135.808C355.362 135.339 356.236 134.699 356.791 133.888C357.346 133.077 357.623 132.011 357.623 130.688C357.623 129.195 357.218 128.107 356.407 127.424C355.639 126.699 354.38 126.293 352.631 126.208L350.135 126.4L349.879 135.616L354.167 135.808Z" fill="#005485"></path> <defs> <radialGradient id="paint0_radial" cx="0" cy="0" r="1" gradientUnits="userSpaceOnUse" gradientTransform="translate(95.0302 102.33) scale(50.43)"> <stop stop-color="white"></stop> <stop offset="1"></stop> </radialGradient> <radialGradient id="paint1_radial" cx="0" cy="0" r="1" gradientUnits="userSpaceOnUse" gradientTransform="translate(6727.94 12782.2) scale(3508.41 6279.54)"> <stop stop-color="white"></stop> <stop offset="1"></stop> </radialGradient> <radialGradient id="paint2_radial" cx="0" cy="0" r="1" gradientUnits="userSpaceOnUse" gradientTransform="translate(3078.32 894.158) scale(490.158)"> <stop stop-color="white"></stop> <stop offset="1"></stop> </radialGradient> </defs> </svg> 