<svg width="92" height="34" viewBox="0 0 145 53" fill="none" xmlns="http://www.w3.org/2000/svg">
<g clip-path="url(#clip0_3875_22236)">
<path d="M66.2892 31.4266C64.8358 30.4023 63.0622 29.8838 61.0197 29.8838H52.6447C52.1901 29.8838 51.7931 30.0502 51.4665 30.3703C51.1528 30.684 50.9863 31.0745 50.9863 31.5418V51.0928C50.9863 51.5473 51.1528 51.9442 51.4665 52.2579C51.7867 52.578 52.1837 52.738 52.6447 52.738H61.0197C63.075 52.738 64.8486 52.2259 66.2892 51.2144C67.7363 50.2221 68.8504 48.8393 69.5995 47.0981C70.3359 45.3632 70.7072 43.4235 70.7072 41.3173C70.7072 39.2111 70.3359 37.2906 69.5995 35.5685C68.8504 33.8337 67.7363 32.4381 66.2892 31.4266ZM67.1985 41.3173C67.1985 43.7244 66.6542 45.7217 65.5721 47.2581C64.5028 48.7817 62.8637 49.5627 60.7059 49.5627H54.3991V33.0719H60.7059C62.8381 33.0719 64.4708 33.8529 65.5529 35.3893C66.6414 36.9449 67.1985 38.9423 67.1985 41.3237V41.3173Z" fill="#6BD333"/>
<path d="M44.6273 33.1221C45.4853 33.1221 46.2088 32.4115 46.2088 31.5665C46.2088 30.5486 45.4021 29.9404 44.6273 29.9404H31.1812C30.7394 29.9404 30.3489 30.1005 30.0159 30.427C29.6958 30.7599 29.5293 31.1504 29.5293 31.6049V51.143C29.5293 51.5975 29.6894 51.988 30.0159 52.3209C30.3489 52.641 30.7394 52.801 31.1812 52.801H44.6273C45.6582 52.801 46.2088 51.8984 46.2088 51.2454C46.2088 50.4644 45.6006 49.6258 44.6273 49.6258H32.9356V42.6735H43.1931C43.9486 42.6735 44.7618 42.0781 44.7618 41.1179C44.7618 40.2408 44.0575 39.5302 43.1931 39.5302H32.9356V33.1285H44.6273V33.1221Z" fill="#6BD333"/>
<path d="M141.902 49.5874H132.125V31.6049C132.125 31.144 131.959 30.747 131.626 30.427C131.286 30.1005 130.889 29.9404 130.435 29.9404C129.935 29.9404 129.526 30.1069 129.205 30.427C128.885 30.747 128.719 31.144 128.719 31.6049V51.143C128.719 51.6167 128.872 52.0008 129.18 52.3145C129.494 52.6346 129.897 52.801 130.377 52.801H141.902C142.376 52.801 142.78 52.6474 143.093 52.3529C143.407 52.052 143.561 51.6807 143.561 51.2134C143.561 50.7461 143.401 50.33 143.093 50.0355C142.78 49.741 142.376 49.5938 141.902 49.5938V49.5874Z" fill="#6BD333"/>
<path d="M77.4788 29.9404C76.973 29.9404 76.5696 30.1005 76.2366 30.427C75.9101 30.7534 75.75 31.1504 75.75 31.6049V51.143C75.75 51.6039 75.9165 52.0008 76.2558 52.3209C76.5824 52.6346 76.9858 52.801 77.4404 52.801C77.9398 52.801 78.3432 52.641 78.6697 52.3209C78.9963 51.9944 79.1563 51.5975 79.1563 51.143V31.6049C79.1563 31.144 78.9835 30.747 78.6569 30.427C78.3304 30.1005 77.927 29.9404 77.4724 29.9404H77.4788Z" fill="#6BD333"/>
<path d="M22.1616 29.9468C21.2588 29.9468 20.9195 30.4206 20.0551 31.2848L12.9543 38.3843L5.87265 31.2848C4.89941 30.3053 4.59847 29.9404 3.83012 29.9404C2.81206 29.9404 2.12695 30.8111 2.12695 31.6177V51.1302C2.12695 51.9368 2.81206 52.8074 3.83012 52.8074C4.84818 52.8074 5.5397 51.9432 5.5397 51.1302V35.7468L10.7901 40.9898C11.8658 42.1293 12.378 42.347 12.9543 42.347C13.5561 42.347 13.9915 42.1549 15.1248 40.9898L20.3816 35.734V51.1238C20.3816 51.9304 21.0347 52.801 22.0848 52.801C23.1349 52.801 23.7944 51.9368 23.7944 51.1238V31.6113C23.7944 30.7086 22.994 29.9404 22.1616 29.9404V29.9468Z" fill="#6BD333"/>
<path d="M91.52 33.9351C92.743 33.2373 94.1644 32.8788 95.7587 32.8788C97.3531 32.8788 98.7169 33.2629 100.049 34.0119C100.33 34.1592 100.574 34.2552 100.913 34.2552C101.489 34.2552 102.559 33.7751 102.559 32.6035C102.559 31.989 102.245 31.464 101.694 31.1632C99.8566 30.1261 97.8589 29.5947 95.7587 29.5947C93.6586 29.5947 91.5648 30.1069 89.804 31.1183C88.0432 32.1234 86.641 33.5254 85.623 35.2987C84.6177 37.0656 84.1055 39.0629 84.1055 41.2523C84.1055 43.6337 84.6369 45.7399 85.687 47.5132C86.7435 49.2929 88.1713 50.6629 89.9321 51.5975C91.6865 52.5258 93.6458 52.9931 95.7523 52.9931C96.7704 52.9931 97.8205 52.8522 98.8705 52.5706C99.9206 52.2953 100.875 51.9112 101.726 51.4311C101.918 51.3222 102.552 50.8997 102.552 50.0035C102.552 48.8384 101.502 48.3582 100.939 48.3582C100.51 48.3582 100.33 48.4543 100.094 48.5695L100.029 48.6015C98.7489 49.3633 97.3082 49.7474 95.7523 49.7474C94.1964 49.7474 92.8326 49.4081 91.5969 48.7423C90.3739 48.0765 89.3943 47.0907 88.6963 45.8231C87.992 44.5556 87.6399 43.0192 87.6399 41.2459C87.6399 39.607 87.9856 38.1346 88.6579 36.8799C89.3494 35.5996 90.2843 34.6329 91.5136 33.9223L91.52 33.9351Z" fill="#6BD333"/>
<path d="M116.853 30.8236C116.642 30.3243 116.014 29.793 115.13 29.793C114.247 29.793 113.619 30.3115 113.408 30.8236L104.828 50.5538C104.655 50.9443 104.649 51.4244 104.822 51.847C104.988 52.2631 105.308 52.596 105.731 52.7752C105.955 52.8712 106.186 52.9225 106.41 52.9225C107.14 52.9225 107.742 52.4167 107.959 51.9174L109.976 47.2697H120.298L122.321 51.9174C122.539 52.4167 123.141 52.9225 123.87 52.9225C124.101 52.9225 124.325 52.8712 124.556 52.7752C125.087 52.5448 125.343 52.1478 125.458 51.8534C125.625 51.4308 125.625 50.9507 125.458 50.5538L116.872 30.8172L116.853 30.8236ZM118.947 44.1841H111.314L115.13 35.4009L118.947 44.1841Z" fill="#6BD333"/>
<path d="M71.285 1.53613H57.4996C57.045 1.53613 56.648 1.70258 56.3343 2.02267C56.0141 2.33635 55.8477 2.73326 55.8477 3.19418V22.7387C55.8477 23.5389 56.5264 24.3967 57.538 24.3967C58.5497 24.3967 59.222 23.5389 59.222 22.7387V14.3652H69.838C70.4719 14.3652 71.4131 13.8659 71.4131 12.784C71.4131 11.7021 70.4719 11.2156 69.838 11.2156H59.222V4.7178H71.285C72.047 4.7178 72.873 4.10963 72.873 3.13017C72.873 2.02907 71.9445 1.53613 71.285 1.53613Z" fill="#1DB7ED"/>
<path d="M92.24 23.1615C93.9047 22.1436 95.2301 20.7161 96.1778 18.9364C97.119 17.1631 97.5928 15.1529 97.5928 12.9636C97.5928 10.7742 97.119 8.75761 96.1778 6.99073C95.2365 5.21745 93.9111 3.79626 92.24 2.75918C90.5688 1.7349 88.6608 1.20996 86.5542 1.20996C84.4477 1.20996 82.5332 1.7349 80.8748 2.75918C79.1973 3.78986 77.8719 5.21105 76.9307 6.99073C75.9894 8.77041 75.5156 10.7806 75.5156 12.9636C75.5156 15.1465 75.9894 17.1503 76.9307 18.9364C77.8719 20.7225 79.2037 22.1436 80.8748 23.1615C82.5332 24.1922 84.4413 24.7171 86.5542 24.7171C88.6672 24.7171 90.5752 24.1922 92.24 23.1679V23.1615ZM82.6805 5.57595C83.8074 4.85895 85.1136 4.49405 86.5542 4.49405C87.9949 4.49405 89.3011 4.86535 90.4344 5.59515C91.5677 6.33135 92.4641 7.34923 93.098 8.62958C93.7319 9.90992 94.0584 11.3631 94.0584 12.97C94.0584 14.5768 93.7319 16.0236 93.098 17.3039C92.4705 18.5779 91.5741 19.5958 90.4344 20.3384C89.2947 21.0682 87.9885 21.4395 86.5542 21.4395C85.12 21.4395 83.8138 21.0682 82.6805 20.3384C81.5279 19.5958 80.6572 18.6035 80.0169 17.3039C79.3766 16.0172 79.0564 14.5576 79.0564 12.97C79.0564 11.3823 79.383 9.88432 80.0169 8.59757C80.6572 7.31082 81.5536 6.29294 82.6805 5.58235V5.57595Z" fill="#1DB7ED"/>
<path d="M143.893 7.21545C143.151 5.48698 142.043 4.0914 140.59 3.07993C139.13 2.05565 137.362 1.53711 135.326 1.53711H126.951C126.49 1.53711 126.106 1.69715 125.773 2.02364C125.453 2.33733 125.293 2.73423 125.293 3.19516V22.7397C125.293 23.2006 125.453 23.5975 125.773 23.9112C126.106 24.2377 126.49 24.3913 126.951 24.3913H135.326C137.362 24.3913 139.136 23.8792 140.59 22.8677C142.043 21.8626 143.151 20.4735 143.893 18.745C144.63 17.0165 145.007 15.0704 145.007 12.9642C145.007 10.858 144.636 8.93752 143.893 7.21545ZM141.492 12.9642C141.492 15.3713 140.948 17.375 139.866 18.9114C138.79 20.435 137.158 21.2097 135 21.2097H128.687V4.71877H135C137.132 4.71877 138.765 5.49979 139.847 7.0362C140.935 8.58542 141.486 10.5764 141.486 12.9642H141.492Z" fill="#1DB7ED"/>
<path d="M105.789 22.7391V15.5628H109.08L117.327 23.7954C117.558 24.0259 117.993 24.2755 118.525 24.2755C118.96 24.2755 119.37 24.1027 119.69 23.7826C120.42 23.0464 120.273 21.9773 119.709 21.4076L113.831 15.5372C120.477 15.1915 120.676 8.96259 120.676 8.24559C120.676 4.05245 117.359 1.54297 114.164 1.54297H104.035C103.58 1.54297 103.183 1.70941 102.863 2.0295C102.549 2.34319 102.383 2.74009 102.383 3.20102V22.7455C102.383 23.5457 103.068 24.4036 104.086 24.4036C105.104 24.4036 105.783 23.5457 105.783 22.7455L105.789 22.7391ZM105.789 12.6436V4.71823H113.601C116.431 4.71823 117.174 7.01646 117.174 8.23919C117.174 10.9983 115.56 12.6436 112.864 12.6436H105.796H105.789Z" fill="#1DB7ED"/>
<path d="M41.7523 12.9637L50.1978 4.51978C50.6716 4.04605 50.9853 2.97056 50.1721 2.15754C49.7624 1.74783 49.3078 1.6582 48.994 1.6582C48.5522 1.6582 48.1104 1.83745 47.8095 2.13193L39.3641 10.5758L30.925 2.13193C30.6945 1.90147 30.2527 1.6582 29.7213 1.6582C29.2859 1.6582 28.8825 1.83105 28.556 2.15754C27.8196 2.89374 27.9669 3.95643 28.5304 4.51978L36.9822 12.9637L28.5304 21.4012C28.0694 21.8813 27.7556 22.9696 28.5624 23.7762C28.9722 24.1859 29.4332 24.2691 29.7469 24.2691C30.1887 24.2691 30.6305 24.0899 30.9315 23.789L39.3769 15.3451L47.8223 23.789C48.0528 24.0195 48.4882 24.2691 49.026 24.2691C49.4614 24.2691 49.8584 24.0963 50.185 23.7762C50.9213 23.04 50.774 21.9709 50.2106 21.4012L41.7652 12.9637H41.7523Z" fill="#1DB7ED"/>
<path d="M14.5858 0.665781C14.1312 0.236864 13.5549 0 12.9723 0C12.3896 0 11.7941 0.243266 11.3267 0.69779L0.838779 11.1774C0.64029 11.3503 0 11.9905 0 12.9635C0 13.8086 0.428994 14.3463 0.697916 14.6024L11.1859 25.0948C11.4036 25.3445 12.0246 25.9335 12.9531 25.9335C13.8815 25.9335 14.541 25.3061 14.6114 25.2357C17.8065 22.0412 25.2466 14.6152 25.2786 14.564C25.7012 14.1094 25.9445 13.5397 25.9445 12.9635C25.9445 12.1313 25.5412 11.6704 25.221 11.2991C25.1826 11.2415 17.7744 3.84745 14.5858 0.665781ZM21.9811 12.9635L12.9723 21.9708L3.9698 12.9635L12.9659 3.95628L21.9747 12.9699L21.9811 12.9635Z" fill="#1DB7ED"/>
</g>
<defs>
<clipPath id="clip0_3875_22236">
<rect width="145" height="53" fill="white"/>
</clipPath>
</defs>
</svg>
