<?xml version="1.0" encoding="utf-8"?>
<!-- Generator: Adobe Illustrator 27.7.0, SVG Export Plug-In . SVG Version: 6.00 Build 0)  -->
<svg version="1.1" id="Шар_1" xmlns="http://www.w3.org/2000/svg" xmlns:xlink="http://www.w3.org/1999/xlink" x="0px" y="0px"
	 viewBox="0 0 169.4 46.8" style="enable-background:new 0 0 169.4 46.8;" xml:space="preserve">
<style type="text/css">
	.st0{fill:none;stroke:#000000;stroke-width:1.2;stroke-linecap:round;stroke-linejoin:round;stroke-miterlimit:10;}
	.st1{fill:#63ACDF;}
	.st2{fill:#12100B;}
</style>
<g>
	<path class="st0" d="M47.3,32.8c-1.3,1.2-2.6,2.2-4,3.2c-0.3,0.2-0.6,0.4-0.9,0.7c-1.4,1.5-3.2,2.4-4.9,3.5c-0.7,0.5-1.4,1-2.1,1.5
		c-0.8,0.6-1.7,0.9-2.6,1.3c-1,0.4-2.1,0.6-3.2,0.6c0,0,0,0-0.1,0c-0.4,0-0.9,0.2-1.3-0.3c-0.3-0.6-0.4-1.2-0.3-1.8
		c0.1-0.6,0.5-1.1,0.7-1.6"/>
	<path class="st0" d="M22.3,43.1c0.3,0,0.7,0.1,0.9,0.2c0.6,0.3,1.3,0.5,1.9,0.6c0.6,0.1,1.1-0.3,1.1-0.9c0.1-1-0.4-1.8-0.8-2.6
		c-0.2-0.4-0.7-0.3-1-0.4c-0.9-0.1-1.8-0.4-2.6-1c-0.7-0.5-1.6-0.9-2.3-1.4c-0.9-0.6-1.6-1.4-2.3-2.2c-1.2-1.4-2.6-2.6-3.8-4
		c-0.9-1.2-2.1-2.5-2.9-3.7"/>
	<path class="st0" d="M47.8,35.7c-1.6,1.7-3.3,3.3-5.1,4.7c-0.8,0.6-1.5,1.2-2.2,1.9c-0.6,0.5-1.3,1-2,1.5c-1,0.7-2,1.3-3.2,1.5
		c-0.6,0.1-1.1,0.2-1.7,0.1c-0.5-0.1-1.1-0.6-1.2-1.3c0-0.2-0.1-0.4-0.1-0.6"/>
	<path class="st0" d="M40.5,42.5c0.1,0.2,0.2,0.3,0.3,0.5c0.4,1.1,2.1,1.9,3.2,0.7c1.1-1.2,2.3-2.2,3.4-3.4c0.4-0.4,0.7-0.9,0.9-1.4
		c0.2-0.3,0.4-0.6,0.6-0.9c2-2.1,3.2-4.5,3.8-7.2c0.2-1,0.7-1.8,1.1-2.7c0.6-1.5,1.1-3,1.5-4.6c0.3-1.1,0.7-2.1,1-3.2
		c0.3-0.8,0.4-1.7,0.5-2.6c0.2-2.9-0.5-5.6-1.7-8.2c-0.5-0.9-1.1-1.8-1.7-2.6c-0.2-0.2-0.3-0.4-0.5-0.7c-0.4-0.8-1-1.3-1.7-1.7
		c-0.5-0.2-0.9-0.7-1.3-1c-0.9-0.9-2.1-1-3.2-1.3c-0.9-0.2-1.9-0.4-2.8-0.5c-0.7-0.1-1.3,0-2,0.2c-1.6,0.3-3.3,0.7-5,0.6
		c-1.1-0.1-2,0.3-2.7,1.1c-1.2,1.2-2.2,2.6-3.3,4c-1,1.3-1.9,2.7-2.5,4.3c-0.2,0.6-0.3,1.3-0.8,1.9c-0.1,0.1,0,0.5,0,0.7
		c0,0.7,0,1.4,0.1,2.1c0.2,0.6,0.4,1.3,1,1.7c0.3,0.2,0.7,0.1,1,0c0.6-0.4,1.1-0.9,1.5-1.5c0.8-1.1,1.4-2.4,2.1-3.5
		c1-1.7,2.5-2.8,4.5-3.1c1.8-0.3,3.3,0.4,4.5,1.8c1.1,1.3,1.5,2.8,1.8,4.4c0.4,2.4-0.3,4.4-1.5,6.4c-1.5,2.7-3.4,5.2-5.6,7.4
		C36,31,34.6,32,33.4,33c-1.2,1-2.5,1.9-3.9,2.7c-0.7,0.4-1.2,1-1.6,1.6c-0.3,0.4-0.4,0.9-0.6,1.3"/>
	<path class="st0" d="M45.8,29c-1.2,1.2-2.8,2.3-4.1,3.4c-1.4,1.3-2.9,2.5-4.5,3.7c-1.1,0.9-2.3,1.6-3.6,2.1
		c-0.2,0.1-0.4,0.2-0.6,0.3c-1,0.6-2.1,1.1-3.3,1.3c-0.9,0.2-1.7,0-2.2-0.8c-0.2-0.3-0.3-0.4-0.6-0.4"/>
	<path class="st0" d="M27.7,16.5c-0.3,0.2-0.5,0.5-0.7,0.8c-0.6,0.8-1,0.8-1.6,0.2c-0.4-0.4-0.8-0.8-1-1.3c-0.4-0.7-0.9-1.3-1.5-1.7
		c-0.5-0.4-0.9-0.9-1.3-1.4c-1.4-1.8-3.3-2.6-5.5-2.5c-0.8,0-1.5,0.5-2.1,0.9c-1.7,1.2-2.4,2.8-2.6,4.8c-0.4,3.8,0.9,7.1,2.9,10.2
		c0.3,0.5,0.5,1,0.8,1.5c0.2,0.4,0.5,0.8,0.8,1.1c1.1,1.1,2.2,2.1,3.3,3.2c0.1,0.1,0.2,0.2,0.4,0.3c1.7,0.8,3.1,2.2,4.6,3.2
		c0.5,0.3,1,0.6,1.4,0.9c0.5,0.3,0.9,0.7,1.2,1.3c0.1,0.2,0.2,0.3,0.3,0.4c-0.1,0.8-0.6,1.4-1.3,1.7"/>
	<path class="st0" d="M8.3,29.2c0.6,0.9,1,1.7,1.7,2.4c0.1,0.1,0.3,0.4,0.4,0.6c0.8,1.6,2.2,2.5,3.3,3.9c1.7,2.2,3.8,4.1,6.3,5.5
		c0.5,0.3,1.1,0.7,1.6,1c0.4,0.3,0.7,0.4,1,0.6c0.1,0.1,0,0.1,0,0.2c0.2,0.3,0.1,0.8,0,0.9c-0.2,0.5-0.4,0.7-0.9,0.8
		c-1.1,0.1-2.2-0.3-3.2-0.7c-1.3-0.6-2.4-1.5-3.4-2.4c-0.5-0.4-0.9-1-1.4-1.3c-1.7-1.1-2.6-2.9-3.9-4.4c-1.2-1.3-2.2-2.8-3.1-4.3"/>
	<path class="st0" d="M27.6,13.4c-0.1-0.1-0.2-0.2-0.3-0.3c-0.8-1.6-2.1-2.9-3-4.4c-0.8-1.3-1.7-2.5-3-3.5c-0.8-0.6-1.5-1.2-2.3-1.7
		c-0.6-0.4-1.4-0.4-2.1-0.6c-0.6-0.2-1.2-0.3-1.8-0.2c-1,0.1-2-0.2-3-0.3c-1.5-0.2-3,0.1-4.3,1c-2.7,1.7-4.6,4.1-5.6,7.1
		c-0.4,1.2-0.6,2.4-0.8,3.7c-0.2,1.4-0.2,2.8-0.2,4.2c0,1.2,0,2.3,0.1,3.5c0.1,0.6,0.1,1.2,0.1,1.8c0.1,1.8,0.2,3.6,0.9,5.3
		c0.9,2.2,1.8,4.3,3.2,6.3c0.6,0.8,0.8,1.7,1.3,2.6c0.9,1.6,1.8,3.2,2.7,4.7c0.4,0.7,1.1,1.3,1.8,1.7c0.5,0.3,1.5,0.1,1.6-0.4
		c0.1-0.4,0.1-0.8,0-1.1c-0.2-0.6-0.2-1.3-0.4-1.9c-0.1-0.3,0-0.6,0-0.9"/>
	<path class="st1" d="M26,21.8c0.9,0.1,1.9,0.2,2.2,0.3c0.4,0.1,0.5,0.2,0.4,0.8s0,1.9,0,1.9s1.8,0.1,2.3,0.1s0.7,0,0.8,0.2
		c0.1,0.2-0.1,0.9-0.1,1.5s0,1.4,0,1.4s-1.3,0.1-1.8,0.1s-0.9,0.1-0.9,0.1s0.1,1.2,0.1,1.7c0,0.5,0.1,1,0.1,1s-1.9,0.1-2.7,0.1
		c-0.7,0-0.9,0-0.9,0s-0.1-1,0-1.9c0.1-0.9,0.1-1.1,0.1-1.1s-1.5,0-2,0s-1.2,0-1.2,0s-0.2-1-0.2-1.5c0-0.5-0.3-1.7-0.3-1.7
		s0.7,0,1.5,0.1s1.8,0.1,1.8,0.1s-0.2-1.2-0.3-2C25,22.1,25,21.7,25,21.7L26,21.8z"/>
	<g>
		<g>
			<path class="st2" d="M72.1,13.3c0,1.4-1.1,2.3-2.8,2.3H68v1.8h-1.5V11h2.8C71,11,72.1,11.9,72.1,13.3z M70.5,13.3
				c0-0.7-0.5-1.1-1.4-1.1H68v2.2h1.2C70.1,14.4,70.5,14,70.5,13.3z"/>
			<path class="st2" d="M72.8,11c0-0.5,0.4-0.8,0.9-0.8c0.5,0,0.9,0.3,0.9,0.8c0,0.5-0.4,0.8-0.9,0.8C73.2,11.8,72.8,11.4,72.8,11z
				 M73,12.5h1.4v5H73V12.5z"/>
			<path class="st2" d="M80.6,16c0,0.9-0.7,1.4-2,1.4h-2.6v-5h2.5c1.2,0,2,0.5,2,1.3c0,0.5-0.3,0.9-0.7,1.1
				C80.3,15,80.6,15.4,80.6,16z M77.3,14.5h1.1c0.5,0,0.8-0.2,0.8-0.5c0-0.4-0.3-0.5-0.8-0.5h-1.1V14.5z M79.3,15.9
				c0-0.4-0.2-0.6-0.8-0.6h-1.2v1.1h1.2C79,16.4,79.3,16.3,79.3,15.9z"/>
			<path class="st2" d="M81.8,12.5h1.4v1.9h2.2v-1.9h1.4v5h-1.4v-1.9h-2.2v1.9h-1.4V12.5z"/>
			<path class="st2" d="M93.1,15.3h-3.8c0.1,0.6,0.7,1,1.4,1c0.5,0,0.9-0.2,1.2-0.5l0.8,0.8c-0.5,0.5-1.2,0.8-2,0.8
				c-1.7,0-2.8-1.1-2.8-2.6c0-1.5,1.1-2.6,2.6-2.6c1.5,0,2.6,1,2.6,2.6C93.1,15.1,93.1,15.2,93.1,15.3z M89.3,14.5h2.4
				c-0.1-0.6-0.6-1-1.2-1C89.9,13.5,89.4,13.9,89.3,14.5z"/>
			<path class="st2" d="M94.3,12.5h1.4v1.9h2.2v-1.9h1.4v5h-1.4v-1.9h-2.2v1.9h-1.4V12.5z"/>
			<path class="st2" d="M100.4,14.9c0-1.5,1.2-2.6,2.8-2.6c1,0,1.9,0.5,2.2,1.3l-1.1,0.6c-0.3-0.5-0.7-0.7-1.1-0.7
				c-0.7,0-1.3,0.5-1.3,1.4c0,0.9,0.6,1.4,1.3,1.4c0.5,0,0.8-0.2,1.1-0.7l1.1,0.6c-0.4,0.8-1.2,1.3-2.2,1.3
				C101.5,17.5,100.4,16.4,100.4,14.9z"/>
			<path class="st2" d="M111,15.7c0,1.1-0.8,1.7-2.2,1.7l-2.5,0v-5h1.4V14h1.3C110.3,14,111,14.6,111,15.7z M109.6,15.7
				c0-0.5-0.3-0.7-0.9-0.7l-0.9,0v1.4h0.9C109.3,16.4,109.6,16.2,109.6,15.7z"/>
			<path class="st2" d="M114.2,15.5h-0.7v1.9H112v-5h1.4v1.9h0.8l1.3-1.9h1.5l-1.7,2.4l1.9,2.6h-1.7L114.2,15.5z"/>
			<path class="st2" d="M122.3,14.6v2.8h-1.3v-0.6c-0.3,0.5-0.8,0.7-1.5,0.7c-1.2,0-1.9-0.6-1.9-1.5c0-0.9,0.6-1.5,2.1-1.5h1.1
				c0-0.6-0.4-1-1.1-1c-0.5,0-1.1,0.2-1.4,0.5l-0.5-1c0.5-0.4,1.3-0.6,2.1-0.6C121.4,12.4,122.3,13.1,122.3,14.6z M120.8,15.8v-0.5
				h-1c-0.7,0-0.9,0.2-0.9,0.6c0,0.4,0.3,0.6,0.8,0.6C120.3,16.5,120.7,16.3,120.8,15.8z"/>
			<path class="st2" d="M126,14.2c0-1.9,1.5-3.3,3.5-3.3c2,0,3.5,1.4,3.5,3.3s-1.5,3.3-3.5,3.3C127.5,17.5,126,16.1,126,14.2z
				 M131.5,14.2c0-1.2-0.9-2.1-2-2.1c-1.2,0-2,0.8-2,2.1c0,1.2,0.9,2.1,2,2.1C130.7,16.3,131.5,15.4,131.5,14.2z"/>
			<path class="st2" d="M139.4,15.1c0,1.4-1.1,2.4-2.7,2.4c-1.7,0-2.8-1.1-2.8-3.3c0-2,0.8-3.2,2.6-3.6l2.4-0.5l0.2,1.2l-2.1,0.4
				c-1.1,0.2-1.6,0.7-1.7,1.7c0.4-0.5,1-0.7,1.8-0.7C138.5,12.8,139.4,13.7,139.4,15.1z M137.9,15.1c0-0.8-0.5-1.2-1.2-1.2
				c-0.7,0-1.2,0.5-1.2,1.2c0,0.7,0.5,1.3,1.2,1.3C137.5,16.4,137.9,15.9,137.9,15.1z"/>
			<path class="st2" d="M145.2,12.5v5h-1.4v-3.8h-1.6l0,0.9c-0.1,1.8-0.4,3-1.6,3c-0.2,0-0.5,0-0.7-0.1l0.1-1.2c0.1,0,0.1,0,0.2,0
				c0.7,0,0.7-0.9,0.8-1.8l0.1-2H145.2z"/>
			<path class="st2" d="M151,14.6v2.8h-1.3v-0.6c-0.3,0.5-0.8,0.7-1.5,0.7c-1.2,0-1.9-0.6-1.9-1.5c0-0.9,0.6-1.5,2.1-1.5h1.1
				c0-0.6-0.4-1-1.1-1c-0.5,0-1.1,0.2-1.4,0.5l-0.5-1c0.5-0.4,1.3-0.6,2.1-0.6C150.1,12.4,151,13.1,151,14.6z M149.5,15.8v-0.5h-1
				c-0.7,0-0.9,0.2-0.9,0.6c0,0.4,0.3,0.6,0.8,0.6C149,16.5,149.4,16.3,149.5,15.8z"/>
			<path class="st2" d="M151.9,14.9c0-1.5,1.2-2.6,2.8-2.6c1,0,1.9,0.5,2.2,1.3l-1.1,0.6c-0.3-0.5-0.7-0.7-1.1-0.7
				c-0.7,0-1.3,0.5-1.3,1.4c0,0.9,0.6,1.4,1.3,1.4c0.5,0,0.8-0.2,1.1-0.7l1.1,0.6c-0.4,0.8-1.2,1.3-2.2,1.3
				C153.1,17.5,151.9,16.4,151.9,14.9z"/>
			<path class="st2" d="M157.9,12.5h1.4v1.9h2.2v-1.9h1.4v5h-1.4v-1.9h-2.2v1.9h-1.4V12.5z"/>
			<path class="st2" d="M168.7,14.6v2.8h-1.3v-0.6c-0.3,0.5-0.8,0.7-1.5,0.7c-1.2,0-1.9-0.6-1.9-1.5c0-0.9,0.6-1.5,2.1-1.5h1.1
				c0-0.6-0.4-1-1.1-1c-0.5,0-1.1,0.2-1.4,0.5l-0.5-1c0.5-0.4,1.3-0.6,2.1-0.6C167.8,12.4,168.7,13.1,168.7,14.6z M167.3,15.8v-0.5
				h-1c-0.7,0-0.9,0.2-0.9,0.6c0,0.4,0.3,0.6,0.8,0.6C166.7,16.5,167.1,16.3,167.3,15.8z"/>
			<path class="st2" d="M69,25.3h-1v2.6h-1.5v-6.5h1.5v2.6H69l1.7-2.6h1.6l-2.1,3.1l2.2,3.3h-1.7L69,25.3z"/>
			<path class="st2" d="M77.9,23v5h-1.4v-3.8h-1.6l0,0.9c-0.1,1.8-0.4,3-1.6,3c-0.2,0-0.5,0-0.7-0.1l0.1-1.2c0.1,0,0.1,0,0.2,0
				c0.7,0,0.7-0.9,0.8-1.8l0.1-2H77.9z"/>
			<path class="st2" d="M79.2,21.5c0-0.5,0.4-0.8,0.9-0.8c0.5,0,0.9,0.3,0.9,0.8c0,0.5-0.4,0.8-0.9,0.8
				C79.6,22.3,79.2,21.9,79.2,21.5z M79.4,23h1.4v5h-1.4V23z"/>
			<path class="st2" d="M82.3,23h1.4v1.9h2.2V23h1.4v5h-1.4v-1.9h-2.2v1.9h-1.4V23z"/>
			<path class="st2" d="M88.6,21.5c0-0.5,0.4-0.8,0.9-0.8c0.5,0,0.9,0.3,0.9,0.8c0,0.5-0.4,0.8-0.9,0.8C89,22.3,88.6,21.9,88.6,21.5
				z M88.8,23h1.4v5h-1.4V23z"/>
			<path class="st2" d="M96.2,23v5h-1.4v-1.8c-0.4,0.2-0.8,0.3-1.4,0.3c-1.3,0-2-0.6-2-1.9V23h1.4v1.5c0,0.6,0.3,0.9,0.9,0.9
				c0.4,0,0.7-0.1,1.1-0.2V23H96.2z"/>
			<path class="st2" d="M97.7,23h1.4v1.9h2.2V23h1.4v5h-1.4v-1.9h-2.2v1.9h-1.4V23z"/>
			<path class="st2" d="M108.5,25.1v2.8h-1.3v-0.6c-0.3,0.5-0.8,0.7-1.5,0.7c-1.2,0-1.9-0.6-1.9-1.5c0-0.9,0.6-1.5,2.1-1.5h1.1
				c0-0.6-0.4-1-1.1-1c-0.5,0-1.1,0.2-1.4,0.5l-0.5-1c0.5-0.4,1.3-0.6,2.1-0.6C107.6,22.9,108.5,23.6,108.5,25.1z M107,26.4v-0.5h-1
				c-0.7,0-0.9,0.2-0.9,0.6c0,0.4,0.3,0.6,0.8,0.6C106.5,27,106.9,26.8,107,26.4z"/>
			<path class="st2" d="M118.4,21.5v6.5h-1.5v-5.2h-2.2l0,1.3c-0.1,2.5-0.4,4-2,4c-0.2,0-0.5,0-0.7-0.1l0.1-1.3c0.1,0,0.2,0,0.3,0
				c0.8,0,0.9-1,1-2.6l0.1-2.6H118.4z"/>
			<path class="st2" d="M119.8,21.5c0-0.5,0.4-0.8,0.9-0.8s0.9,0.3,0.9,0.8c0,0.5-0.4,0.8-0.9,0.8S119.8,21.9,119.8,21.5z M120,23
				h1.4v5H120V23z"/>
			<path class="st2" d="M125.1,26h-0.7v1.9h-1.4v-5h1.4v1.9h0.8l1.3-1.9h1.5l-1.7,2.4l1.9,2.6h-1.7L125.1,26z"/>
			<path class="st2" d="M133.1,25.1v2.8h-1.3v-0.6c-0.3,0.5-0.8,0.7-1.5,0.7c-1.2,0-1.9-0.6-1.9-1.5c0-0.9,0.6-1.5,2.1-1.5h1.1
				c0-0.6-0.4-1-1.1-1c-0.5,0-1.1,0.2-1.4,0.5l-0.5-1c0.5-0.4,1.3-0.6,2.1-0.6C132.3,22.9,133.1,23.6,133.1,25.1z M131.7,26.4v-0.5
				h-1c-0.7,0-0.9,0.2-0.9,0.6c0,0.4,0.3,0.6,0.8,0.6C131.1,27,131.5,26.8,131.7,26.4z"/>
			<path class="st2" d="M139.9,25.4c0,1.6-1.1,2.6-2.5,2.6c-0.6,0-1.1-0.2-1.5-0.6v2.3h-1.4V23h1.4v0.6c0.4-0.4,0.9-0.6,1.6-0.6
				C138.8,22.9,139.9,23.9,139.9,25.4z M138.4,25.4c0-0.9-0.5-1.4-1.3-1.4s-1.3,0.5-1.3,1.4s0.5,1.4,1.3,1.4S138.4,26.3,138.4,25.4z
				"/>
			<path class="st2" d="M141,23h1.4v1.9h2.2V23h1.4v5h-1.4v-1.9h-2.2v1.9H141V23z"/>
			<path class="st2" d="M151.9,23v5h-1.3v-1.4h-1.1l-0.9,1.4h-1.5l1.1-1.6c-0.7-0.3-1.1-0.8-1.1-1.5c0-1.2,0.9-1.8,2.4-1.8H151.9z
				 M148.6,24.8c0,0.5,0.3,0.7,0.9,0.7h1.1v-1.4h-1.1C149,24.1,148.6,24.3,148.6,24.8z"/>
			<path class="st2" d="M66.2,32c0-0.5,0.4-0.8,0.9-0.8c0.5,0,0.9,0.3,0.9,0.8c0,0.5-0.4,0.8-0.9,0.8C66.5,32.8,66.2,32.4,66.2,32z
				 M66.3,33.5h1.4v5h-1.4V33.5z"/>
			<path class="st2" d="M74.1,38.4v-3L72.6,38H72l-1.4-2.5v3h-1.3v-5h1.5l1.6,2.9l1.7-2.9h1.3l0,5H74.1z"/>
			<path class="st2" d="M76.5,37.6c0-0.5,0.4-0.9,0.9-0.9c0.5,0,0.9,0.4,0.9,0.9c0,0.5-0.4,0.9-0.9,0.9
				C76.9,38.5,76.5,38.1,76.5,37.6z"/>
			<path class="st2" d="M91.3,35.2c0,1.9-1.4,3.3-3.4,3.3c-1.8,0-3.1-1.1-3.4-2.7h-0.8v2.6h-1.5V32h1.5v2.5h0.9
				c0.3-1.6,1.6-2.6,3.3-2.6C89.9,31.9,91.3,33.3,91.3,35.2z M89.8,35.2c0-1.2-0.8-2.1-1.9-2.1c-1.1,0-1.9,0.8-1.9,2.1
				s0.8,2.1,1.9,2.1C89,37.3,89.8,36.4,89.8,35.2z"/>
			<path class="st2" d="M97.9,36c0,1.6-1.1,2.6-2.5,2.6c-0.6,0-1.1-0.2-1.5-0.6v2.3h-1.4v-6.8h1.4V34c0.4-0.4,0.9-0.6,1.6-0.6
				C96.8,33.4,97.9,34.4,97.9,36z M96.4,36c0-0.9-0.5-1.4-1.3-1.4s-1.3,0.5-1.3,1.4c0,0.9,0.5,1.4,1.3,1.4S96.4,36.8,96.4,36z"/>
			<path class="st2" d="M98.8,32c0-0.5,0.4-0.8,0.9-0.8s0.9,0.3,0.9,0.8c0,0.5-0.4,0.8-0.9,0.8S98.8,32.4,98.8,32z M98.9,33.5h1.4v5
				h-1.4V33.5z"/>
			<path class="st2" d="M106.3,33.5v5H105V37h-1.1l-0.9,1.4h-1.5l1.1-1.6c-0.7-0.3-1.1-0.8-1.1-1.5c0-1.2,0.9-1.8,2.4-1.8H106.3z
				 M103,35.3c0,0.5,0.3,0.7,0.9,0.7h1.1v-1.4h-1.1C103.3,34.6,103,34.8,103,35.3z"/>
			<path class="st2" d="M110.1,35.2c0-1.9,1.5-3.3,3.5-3.3c1.1,0,2,0.4,2.7,1.1l-1,0.9c-0.4-0.5-1-0.8-1.6-0.8
				c-1.2,0-2.1,0.8-2.1,2.1c0,1.2,0.9,2.1,2.1,2.1c0.6,0,1.2-0.3,1.6-0.8l1,0.9c-0.6,0.7-1.5,1.2-2.7,1.2
				C111.6,38.5,110.1,37.2,110.1,35.2z"/>
			<path class="st2" d="M121.9,36.4h-3.8c0.1,0.6,0.7,1,1.4,1c0.5,0,0.9-0.2,1.2-0.5l0.8,0.8c-0.5,0.5-1.2,0.8-2,0.8
				c-1.7,0-2.8-1.1-2.8-2.6c0-1.5,1.1-2.6,2.6-2.6c1.5,0,2.6,1,2.6,2.6C121.9,36.1,121.9,36.2,121.9,36.4z M118.1,35.5h2.4
				c-0.1-0.6-0.6-1-1.2-1C118.7,34.5,118.2,34.9,118.1,35.5z"/>
			<path class="st2" d="M127.9,38.4v-3l-1.5,2.5h-0.6l-1.4-2.5v3h-1.3v-5h1.5l1.6,2.9l1.7-2.9h1.3l0,5H127.9z"/>
			<path class="st2" d="M135.5,36.4h-3.8c0.1,0.6,0.7,1,1.4,1c0.5,0,0.9-0.2,1.2-0.5l0.8,0.8c-0.5,0.5-1.2,0.8-2,0.8
				c-1.7,0-2.8-1.1-2.8-2.6c0-1.5,1.1-2.6,2.6-2.6c1.5,0,2.6,1,2.6,2.6C135.5,36.1,135.5,36.2,135.5,36.4z M131.7,35.5h2.4
				c-0.1-0.6-0.6-1-1.2-1C132.3,34.5,131.8,34.9,131.7,35.5z"/>
			<path class="st2" d="M136.7,33.5h1.4v1.9h2.2v-1.9h1.4v5h-1.4v-1.9h-2.2v1.9h-1.4V33.5z"/>
			<path class="st2" d="M150.6,36c0,1.5-1.1,2.6-2.6,2.6c-1.3,0-2.3-0.8-2.6-2h-0.7v1.9h-1.4v-5h1.4v1.8h0.7
				c0.3-1.1,1.3-1.9,2.6-1.9C149.5,33.4,150.6,34.4,150.6,36z M149.2,36c0-0.9-0.5-1.4-1.2-1.4c-0.7,0-1.2,0.5-1.2,1.4
				c0,0.9,0.5,1.4,1.2,1.4C148.6,37.3,149.2,36.8,149.2,36z"/>
			<path class="st2" d="M153.9,36.6h-0.7v1.9h-1.4v-5h1.4v1.9h0.8l1.3-1.9h1.5l-1.7,2.4l1.9,2.6h-1.7L153.9,36.6z"/>
			<path class="st2" d="M161.9,35.6v2.8h-1.3v-0.6c-0.3,0.5-0.8,0.7-1.5,0.7c-1.2,0-1.9-0.6-1.9-1.5c0-0.9,0.6-1.5,2.1-1.5h1.1
				c0-0.6-0.4-1-1.1-1c-0.5,0-1.1,0.2-1.4,0.5l-0.5-1c0.5-0.4,1.3-0.6,2.1-0.6C161,33.4,161.9,34.1,161.9,35.6z M160.5,36.9v-0.5h-1
				c-0.7,0-0.9,0.2-0.9,0.6c0,0.4,0.3,0.6,0.8,0.6C159.9,37.5,160.3,37.3,160.5,36.9z"/>
		</g>
	</g>
</g>
</svg>
